<svg width="50" height="32" viewBox="0 0 50 32" fill="none" xmlns="http://www.w3.org/2000/svg">
<path d="M12.7705 1L12.9697 1.00391C13.4278 1.02425 13.8504 1.11788 14.2295 1.30664C14.671 1.52661 14.989 1.84436 15.2236 2.19629C15.4487 2.53399 15.5976 2.90488 15.7129 3.23926C15.7487 3.34325 15.7829 3.46003 15.8203 3.5791C17.2511 3.60182 20.1873 3.58989 23.0605 3.58008C24.7809 3.57421 26.464 3.57018 27.749 3.57715C28.3907 3.58063 28.9394 3.58621 29.3457 3.59668C29.5479 3.60189 29.7233 3.60895 29.8604 3.61719C29.9281 3.62126 29.9956 3.62617 30.0566 3.63281C30.0753 3.63485 30.1135 3.63852 30.1611 3.64648L30.3252 3.68457L30.543 3.7627C31.5857 4.18983 31.9449 5.16973 32.0986 5.90723C32.1825 6.3097 32.2257 6.73369 32.2627 7.08887C32.269 7.1497 32.2761 7.20851 32.2822 7.26563C35.8467 7.35489 40.6092 7.26051 44.1152 7.26074C45.8893 7.26099 47.1994 7.93786 47.8848 9.25684C48.5114 10.4628 48.5001 12.0048 48.2314 13.5205C47.8278 15.7977 47.3108 18.2693 46.8945 20.4814C46.4278 22.962 46.2499 25.1762 44.8525 27.3604C44.5047 27.904 44.0631 28.3172 43.6436 28.6562C43.434 28.8256 43.2202 28.9841 43.0215 29.1299C42.8172 29.2798 42.6313 29.4145 42.4512 29.5547C42.0939 29.8326 41.6319 30.2448 41.1016 30.5234C40.5815 30.7967 39.9968 30.9565 39.2441 30.9922L38.9111 31L12.3125 30.9893L12.3135 30.9902L9.79688 30.9893C8.00345 30.9886 6.59055 30.4256 5.50781 29.4658C4.44748 28.5259 3.76983 27.2651 3.3125 25.9658C3.2092 25.6723 3.1186 25.2029 3.03418 24.6895C2.94496 24.1468 2.84981 23.4654 2.75195 22.6953C2.55609 21.154 2.34537 19.2249 2.14355 17.2656C1.73228 13.273 1.37682 9.348 1.22656 7.90527C1.18899 7.54459 1.13809 7.21941 1.08691 6.81348C1.03909 6.43406 0.995507 6.01694 1 5.59961C1.00926 4.74388 1.22198 3.79544 2.05176 3.0332C2.45295 2.66465 3.00971 2.17593 3.62598 1.77637C4.21778 1.39272 5.00027 1.00001 5.83301 1L12.7705 1ZM42.2207 10.5928C41.5311 10.61 40.7139 10.6338 39.7783 10.6338L21.4434 10.6318H21.4414C21.0871 10.6314 20.8505 10.6268 20.6445 10.6348C20.4444 10.6425 20.3588 10.6609 20.3213 10.6729C20.3068 10.6775 20.3053 10.6769 20.2891 10.6934C20.2576 10.7253 20.1905 10.808 20.0869 11.0098C20.0874 11.0094 20.0326 11.1524 19.9268 11.5381C19.8323 11.8826 19.7183 12.3399 19.5898 12.8799C19.3333 13.9585 19.0271 15.3389 18.7227 16.751C18.1011 19.6339 17.5285 22.4396 17.332 23.3545C17.0438 24.6968 16.638 25.5887 16.2334 26.2588C19.7064 26.259 23.1795 26.2591 26.6523 26.2598C30.7387 26.2605 34.8249 26.2617 38.9111 26.2617C39.5977 26.2617 40.0977 26.2697 40.5205 26.252C40.9376 26.2345 41.188 26.1936 41.3652 26.1328C41.6249 26.0437 41.8955 25.8648 42.3818 24.9463C42.662 24.4171 42.8611 23.7331 43.0332 22.9131C43.1182 22.5083 43.1926 22.0871 43.2695 21.6494C43.3456 21.2168 43.4238 20.7651 43.5117 20.3223L44.3184 16.2949C44.5428 15.1593 44.7206 14.2178 44.8428 13.4307C44.9645 12.6466 45.023 12.0606 45.0244 11.6191C45.0259 11.1696 44.9662 10.955 44.9199 10.8594C44.901 10.8199 44.8614 10.6384 43.915 10.5889C43.4705 10.5656 42.922 10.5753 42.2207 10.5928ZM8.5293 4.39551C7.64952 4.40065 6.85265 4.4089 6.28809 4.41895C6.2877 4.81332 6.30779 5.32703 6.3457 5.93457C6.42637 7.22722 6.58247 8.8819 6.76172 10.584C7.11563 13.9445 7.56932 17.5598 7.66992 18.6514C7.79707 20.0313 7.84574 21.2122 8.03906 22.3359C8.22696 23.4279 8.53405 24.3235 9.09961 25.0557C9.72145 25.8606 10.4302 26.1967 11.04 26.2148C11.6342 26.2324 12.3202 25.9544 12.9365 25.1465C13.4541 24.468 13.7863 23.6031 14.0479 22.5469C14.3171 21.4592 14.4746 20.3478 14.7314 19.0537C14.9637 17.8838 15.1848 16.7067 15.4072 15.5264C15.6293 14.3479 15.853 13.166 16.0879 11.9941C16.4688 10.0935 16.9428 8.73397 17.9844 7.97754C18.5125 7.59406 19.1053 7.42488 19.709 7.34277C20.2976 7.26277 20.9723 7.25781 21.6904 7.25781C24.122 7.25781 26.5835 7.32381 28.9648 7.27344C28.9611 7.21751 28.9588 7.16119 28.9531 7.10547C28.9489 7.06361 28.9415 7.02426 28.9365 6.9873L16.1133 6.95703V6.95605C15.4356 6.95671 14.8791 6.92083 14.4326 6.80664C13.9472 6.68243 13.5338 6.45077 13.2363 6.04297C12.987 5.70101 12.8769 5.29526 12.8066 5.05664C12.7416 4.83577 12.6784 4.62372 12.583 4.38867C11.6658 4.38503 10.0206 4.38679 8.5293 4.39551Z" fill="#111827" stroke="white" stroke-width="2"/>
<path fill-rule="evenodd" clip-rule="evenodd" d="M21.6917 8.25776C24.4046 8.25776 27.2568 8.34399 29.9523 8.2468C30.0175 7.74496 30.0051 6.18651 29.5751 5.9892L16.1168 5.95686C14.3924 5.95888 14.0719 5.6987 13.8567 5.07827C13.6869 4.58917 13.5577 3.99512 13.3176 3.53586C13.2355 3.37893 13.1475 3.37364 12.8033 3.36842C11.4217 3.34732 7.58735 3.37834 5.9807 3.3577C5.22273 3.34795 5.06286 3.59633 5.11286 4.09879C5.60871 9.08142 6.22883 13.9003 6.6751 18.7436C6.91692 21.368 6.89964 23.8425 8.30918 25.6672C9.836 27.6437 12.1791 27.7891 13.7324 25.7528C15.0081 24.0803 15.2296 21.6872 15.7137 19.2484C16.1803 16.8973 16.6023 14.5221 17.0694 12.1911C17.8375 8.35892 18.7705 8.25773 21.6917 8.25776Z" fill="#EDDE1F"/>
<path fill-rule="evenodd" clip-rule="evenodd" d="M14.3916 27.2588C22.5645 27.2588 30.7374 27.2618 38.9103 27.2618C41.5586 27.2618 42.2183 27.3899 43.2643 25.4144C43.9585 24.1032 44.1507 22.2351 44.4918 20.5173C46.9543 8.11417 47.14 9.63405 39.7775 9.63412L21.4419 9.63196C20.1183 9.63029 19.7044 9.56457 19.1965 10.5537C18.7517 11.42 16.7162 21.4563 16.3536 23.1448C15.7811 25.8111 14.7492 26.4079 14.3916 27.2588H14.3916Z" fill="#F1B40B"/>
</svg>
