<svg width="223" height="30" viewBox="0 0 223 30" fill="none" xmlns="http://www.w3.org/2000/svg">
<path d="M0 16.9894C0 11.4703 4.47417 6.99609 9.99334 6.99609H39.9734V26.9828H9.99334C4.47417 26.9828 0 22.5086 0 16.9894Z" fill="#EDDE1F"/>
<path d="M222.713 14.1423L221.7 20.7157C221.503 21.9584 221.274 22.3508 219.476 22.3508H219.116C217.285 22.3508 217.088 21.9584 217.285 20.7157L218.364 13.9134C218.756 11.3952 217.448 11.0028 215.028 11.0028C213.818 11.0028 212.248 11.1336 211.038 11.3952C210.58 11.4933 210.319 11.6896 210.188 12.2782L208.88 20.7157C208.684 21.9584 208.455 22.3508 206.656 22.3508H206.296C204.465 22.3508 204.269 21.9584 204.465 20.7157L205.544 13.9134C205.937 11.3952 204.629 11.0028 202.208 11.0028C200.998 11.0028 199.429 11.1336 198.219 11.3952C197.761 11.4933 197.499 11.6896 197.368 12.2782L196.06 20.7157C195.864 21.9584 195.635 22.3508 193.836 22.3508H193.477C191.645 22.3508 191.449 21.9584 191.645 20.7157L193.052 11.755C193.215 10.6757 193.477 10.1852 195.995 9.76006C197.663 9.46573 200.377 9.2041 202.732 9.2041C204.629 9.2041 206.1 9.49843 206.82 9.79276C208.03 10.2506 208.193 10.3487 209.861 9.92357C211.398 9.56384 213.393 9.2041 215.257 9.2041C222.223 9.2041 223.302 10.6103 222.713 14.1423Z" fill="white"/>
<path d="M177.817 22.7106C169.216 22.7106 168.823 19.7019 169.412 15.9737C170.033 12.2128 171.374 9.2041 179.975 9.2041C188.576 9.2041 188.936 12.2128 188.314 15.9737C187.726 19.7019 186.418 22.7106 177.817 22.7106ZM178.111 21.01C182.591 21.01 183.213 19.1459 183.67 15.9737C184.194 12.7688 184.161 10.9047 179.681 10.9047C175.2 10.9047 174.579 12.7688 174.056 15.9737C173.598 19.1459 173.631 21.01 178.111 21.01Z" fill="white"/>
<path d="M158.627 22.646C150.975 22.6787 149.47 20.3894 150.157 15.9091C150.844 11.4614 153.133 9.13951 160.786 9.17222C164.219 9.20492 166.345 9.56465 166.64 9.59736C167.457 9.76087 167.555 9.89169 167.424 10.7093C167.294 11.625 166.999 11.6577 166.247 11.5923C165.724 11.5269 163.271 11.1998 161.211 11.1998C156.632 11.1998 155.324 12.3117 154.768 15.9091C154.212 19.5392 155.161 20.6184 159.739 20.6184C161.799 20.6184 164.35 20.324 164.874 20.2586C165.658 20.1605 165.953 20.1932 165.789 21.1089C165.658 21.9592 165.495 22.09 164.677 22.2208C164.35 22.2862 162.061 22.646 158.627 22.646Z" fill="white"/>
<path d="M141.585 22.6125C136.843 22.6125 135.306 21.4352 135.797 18.4592L137.596 6.91494C137.792 5.63951 138.086 5.24707 139.885 5.24707H140.245C142.076 5.24707 142.207 5.63951 142.011 6.91494L141.749 8.68091C141.618 9.30228 141.847 9.4985 142.468 9.4985L147.537 9.4985C148.355 9.4985 148.42 9.72742 148.29 10.4142C148.159 11.1664 148.061 11.3299 147.243 11.3299L142.174 11.3299C141.553 11.3299 141.291 11.5588 141.193 12.1475L140.212 18.4919C139.852 20.5522 141.291 20.6176 143.024 20.6176C144.3 20.6176 145.739 20.4541 146.556 20.3887C147.309 20.3233 147.57 20.3233 147.439 21.239C147.309 22.0566 147.145 22.1874 146.36 22.3182C145.575 22.4163 143.94 22.6125 141.585 22.6125Z" fill="white"/>
<path d="M124.092 22.3514H123.733C121.901 22.3514 121.705 21.9589 121.901 20.7162L123.242 12.148C123.34 11.4612 123.144 11.3304 122.523 11.3304H120.43C119.612 11.3304 119.514 11.1669 119.645 10.4147C119.775 9.72791 119.906 9.49899 120.724 9.49899H122.817C123.438 9.49899 123.667 9.30277 123.798 8.6814L123.961 7.70031C124.387 5.01864 126.185 3.87402 130.927 3.87402C133.282 3.87402 134.95 4.10294 135.669 4.20105C136.421 4.33187 136.552 4.42998 136.421 5.24756C136.258 6.16325 135.964 6.16325 135.277 6.09785C134.394 5.99974 133.086 5.86892 131.614 5.86892C129.619 5.86892 128.605 6.16325 128.344 7.92923L128.213 8.6814C128.082 9.30277 128.311 9.49899 128.932 9.49899L133.707 9.49899C134.525 9.49899 134.59 9.72791 134.459 10.4147C134.328 11.1669 134.23 11.3304 133.413 11.3304L128.638 11.3304C128.017 11.3304 127.755 11.5593 127.657 12.148L126.316 20.7162C126.12 21.9589 125.891 22.3514 124.092 22.3514Z" fill="white"/>
<path d="M106.44 22.7106C97.8386 22.7106 97.4462 19.7019 98.0349 15.9737C98.6562 12.2128 99.9971 9.2041 108.598 9.2041C117.199 9.2041 117.559 12.2128 116.937 15.9737C116.349 19.7019 115.041 22.7106 106.44 22.7106ZM106.734 21.01C111.214 21.01 111.836 19.1459 112.293 15.9737C112.817 12.7688 112.784 10.9047 108.304 10.9047C103.823 10.9047 103.202 12.7688 102.679 15.9737C102.221 19.1459 102.254 21.01 106.734 21.01Z" fill="white"/>
<path d="M85.202 22.7106C81.4411 22.7106 78.8903 22.3181 78.3343 22.22C77.5167 22.0892 77.4186 21.9257 77.5494 21.1081C77.7129 20.1924 78.0073 20.0943 78.7267 20.1597C79.5116 20.2905 82.226 20.7484 85.8234 20.7484C89.0283 20.7484 90.0094 20.4213 90.1729 19.2113C90.3691 17.8378 89.8459 17.6415 86.1831 17.4453C80.1657 17.151 78.0727 16.7586 78.6613 13.292C79.25 9.30221 82.6184 9.2041 87.5893 9.2041C90.9251 9.2041 93.3451 9.53113 93.8684 9.62924C94.6532 9.76006 94.7514 9.89087 94.6205 10.7085C94.4897 11.5914 94.1954 11.7223 93.5086 11.6241C92.8873 11.5587 90.1402 11.199 87.5566 11.199C84.1882 11.199 83.1744 11.2971 82.9782 12.5725C82.8147 13.7826 83.2725 14.0115 86.6082 14.1423C92.8873 14.4366 95.0457 14.6001 94.4243 18.4264C93.7703 22.4162 89.5515 22.7106 85.202 22.7106Z" fill="white"/>
<path d="M37.7529 0.5L37.9297 0.503906C38.3338 0.521808 38.6847 0.60281 38.9883 0.753906C39.3395 0.928784 39.5954 1.18171 39.79 1.47363C39.9798 1.7584 40.1122 2.08209 40.2227 2.40234C40.2933 2.60721 40.3649 2.84166 40.4355 3.07129C41.7055 3.1042 44.9276 3.09072 48.0439 3.08008C49.765 3.0742 51.4468 3.07019 52.7295 3.07715C53.3702 3.08062 53.9144 3.08634 54.3154 3.09668C54.5153 3.10183 54.6839 3.10848 54.8125 3.11621C54.8765 3.12006 54.9355 3.12445 54.9854 3.12988C55.0044 3.13196 55.0317 3.13451 55.0625 3.13965L55.1602 3.16211L55.3301 3.22266C56.1427 3.55418 56.4478 4.31791 56.5918 5.00879C56.6695 5.38191 56.7095 5.77983 56.7471 6.14063C56.7698 6.35914 56.7917 6.56393 56.8184 6.75488C60.434 6.86456 65.4671 6.76052 69.0967 6.76074C70.7332 6.76086 71.8448 7.37302 72.4238 8.4873C72.9734 9.54501 72.9843 10.9521 72.7217 12.4336C72.3179 14.7114 71.8054 17.1593 71.3857 19.3896C70.9071 21.9337 70.7433 24.0117 69.4131 26.0908C69.1062 26.5703 68.711 26.9448 68.3115 27.2676C68.112 27.4288 67.9065 27.5809 67.708 27.7266C67.5067 27.8743 67.314 28.0146 67.127 28.1602C66.7299 28.469 66.3294 28.8289 65.8516 29.0801C65.3416 29.348 64.7454 29.5001 63.8936 29.5L36.0371 29.4893H34.7793C33.0994 29.4886 31.8062 28.9649 30.8213 28.0918C29.8477 27.2286 29.208 26.0538 28.7666 24.7998C28.6802 24.5543 28.5952 24.1277 28.5098 23.6084C28.422 23.0744 28.328 22.4002 28.2305 21.6328C28.0353 20.0973 27.8248 18.1721 27.623 16.2139C27.2158 12.2606 26.8533 8.26712 26.7061 6.85352C26.6679 6.48748 26.6142 6.13787 26.5654 5.75098C26.5183 5.37731 26.4783 4.98778 26.4824 4.60547C26.4908 3.8302 26.6798 3.03738 27.3721 2.40137C27.7683 2.03736 28.3007 1.57143 28.8809 1.19531C29.4487 0.827256 30.1301 0.500015 30.8154 0.5L37.7529 0.5ZM67.1904 9.09277C66.4983 9.11005 65.6885 9.13378 64.7607 9.13379L46.4258 9.13184H46.4248C46.0821 9.13139 45.8269 9.12722 45.6074 9.13574C45.3907 9.14417 45.2521 9.16456 45.1504 9.19727C44.9987 9.24611 44.8509 9.34235 44.625 9.78223C44.5977 9.83561 44.5293 10.0324 44.4268 10.4062C44.33 10.7588 44.2149 11.2224 44.0859 11.7646C43.8281 12.8485 43.5215 14.2333 43.2168 15.6465C42.6012 18.5021 42.0151 21.3705 41.8262 22.25C41.5272 23.6419 41.1026 24.5125 40.6973 25.1504C40.5495 25.3829 40.4025 25.5853 40.2764 25.7588C44.0625 25.7589 47.8487 25.7591 51.6348 25.7598C55.7211 25.7605 59.8073 25.7617 63.8936 25.7617C64.5679 25.7617 65.0867 25.7693 65.5234 25.751C65.9574 25.7328 66.2644 25.6896 66.5098 25.6055C66.9529 25.4534 67.301 25.1328 67.8057 24.1797C68.1192 23.5874 68.3301 22.8483 68.5049 22.0156C68.5917 21.6019 68.6683 21.1737 68.7451 20.7363C68.8215 20.3015 68.8988 19.856 68.9854 19.4199C69.6035 16.3066 70.0718 14.0947 70.3184 12.5068C70.4414 11.7146 70.5053 11.1 70.5068 10.6211C70.5084 10.138 70.4464 9.8357 70.3525 9.6416C70.2015 9.3296 69.8872 9.14031 68.9238 9.08984C68.4567 9.06538 67.8885 9.07535 67.1904 9.09277ZM37.7725 2.88672C37.7163 2.88818 37.6503 2.88995 37.5752 2.88965C36.6577 2.88597 35.0057 2.88675 33.5088 2.89551C32.3652 2.9022 31.3374 2.91282 30.7861 2.92871C30.778 3.04063 30.7719 3.17671 30.7705 3.33691C30.767 3.75782 30.7884 4.31311 30.8291 4.96582C30.9105 6.26941 31.0676 7.93286 31.2471 9.63672C31.6037 13.0227 32.0535 16.6037 32.1543 17.6973C32.2783 19.0432 32.3307 20.2708 32.5283 21.4199C32.7233 22.5534 33.0513 23.539 33.6865 24.3613C34.379 25.2577 35.2166 25.6912 36.0068 25.7148C36.7894 25.7381 37.6198 25.3624 38.3164 24.4492C38.894 23.692 39.2472 22.7519 39.5156 21.668C39.788 20.5679 39.9556 19.4072 40.2051 18.1504C40.4378 16.9778 40.6595 15.7987 40.8818 14.6191C41.104 13.4405 41.3263 12.2613 41.5605 11.0928C41.943 9.18447 42.3928 8.01321 43.2607 7.38281C43.6984 7.065 44.2019 6.91363 44.7588 6.83789C45.3082 6.76322 45.9487 6.75781 46.6729 6.75781C49.2536 6.75781 51.9136 6.83249 54.4609 6.75977C54.4639 6.54757 54.4583 6.2964 54.4336 6.05469C54.411 5.83297 54.376 5.64464 54.332 5.5127C54.3291 5.50381 54.3241 5.49606 54.3213 5.48828L41.0967 5.45703V5.45605C40.4278 5.45676 39.9226 5.42037 39.5391 5.32227C39.1362 5.21918 38.8357 5.04049 38.623 4.74902C38.4344 4.49035 38.3448 4.175 38.2686 3.91602C38.186 3.63571 38.0995 3.33439 37.9336 2.97852C37.9144 2.93726 37.8952 2.90767 37.8828 2.88379C37.8524 2.88444 37.8184 2.88552 37.7725 2.88672Z" fill="#111827" stroke="white"/>
<path fill-rule="evenodd" clip-rule="evenodd" d="M46.6742 7.25776C49.387 7.25776 52.2392 7.34399 54.9348 7.2468C54.9999 6.74496 54.9876 5.18651 54.5575 4.9892L41.0992 4.95686C39.3748 4.95888 39.0543 4.6987 38.8391 4.07827C38.6694 3.58917 38.5402 2.99512 38.3 2.53586C38.2179 2.37893 38.1299 2.37364 37.7857 2.36842C36.4041 2.34732 32.5698 2.37834 30.9631 2.3577C30.2051 2.34795 30.0453 2.59633 30.0953 3.09879C30.5911 8.08142 31.2113 12.9003 31.6575 17.7436C31.8993 20.368 31.8821 22.8425 33.2916 24.6672C34.8184 26.6437 37.1615 26.7891 38.7148 24.7528C39.9905 23.0803 40.212 20.6872 40.6961 18.2484C41.1627 15.8973 41.5847 13.5221 42.0519 11.1911C42.8199 7.35892 43.7529 7.25773 46.6742 7.25776Z" fill="#EDDE1F"/>
<path fill-rule="evenodd" clip-rule="evenodd" d="M39.3741 26.2588C47.5469 26.2588 55.7198 26.2618 63.8927 26.2618C66.541 26.2618 67.2007 26.3899 68.2467 24.4144C68.9409 23.1032 69.1331 21.2351 69.4742 19.5173C71.9367 7.11417 72.1224 8.63405 64.7599 8.63412L46.4243 8.63196C45.1007 8.63029 44.6868 8.56457 44.179 9.55365C43.7341 10.42 41.6987 20.4563 41.336 22.1448C40.7635 24.8111 39.7316 25.4079 39.374 26.2588H39.3741Z" fill="#F1B40B"/>
<path d="M23.8132 13.8193C23.6726 15.1695 23.3632 16.6321 22.885 18.1791C22.3787 19.7683 21.6614 21.3294 20.6348 22.4545C19.7347 23.4531 18.6096 24.1141 17.2735 24.5922L16.6828 23.2562C18.1173 22.7077 18.919 22.1451 19.4534 21.4841C17.9486 18.0385 16.5703 13.8193 16.5703 13.8193H18.4267C18.4267 13.8193 19.5518 17.5322 20.5363 20.0637C20.8598 19.4449 21.2114 18.5026 21.4786 17.6025C21.8161 16.4493 22.0552 15.0148 22.1818 13.8193H23.8132Z" fill="#111827"/>
<path d="M15.7993 17.1808C15.7993 19.5154 14.407 21.0765 11.7911 21.0765C11.0316 21.0765 9.92059 20.9218 9.02051 20.6264C9.0627 20.3873 9.11895 19.9935 9.11895 19.2622V10.1488L10.7785 9.99414V13.6085C10.7785 14.157 10.7363 14.4946 10.7082 14.6774C11.2989 13.932 12.0864 13.6789 12.8459 13.6789C14.4773 13.6789 15.7993 14.9024 15.7993 17.1808ZM14.1116 17.4058C14.1116 15.7884 13.2678 15.0431 12.3818 15.0431C11.8614 15.0431 11.2989 15.2259 10.7785 15.7603V18.8122C10.7785 19.1356 10.7785 19.3607 10.7363 19.5857C11.1723 19.7263 11.6364 19.7826 12.0161 19.7826C13.2959 19.7826 14.1116 18.9387 14.1116 17.4058Z" fill="#111827"/>
</svg>
